<?xml version="1.0" standalone="no"?><!DOCTYPE svg PUBLIC "-//W3C//DTD SVG 1.1//EN" "http://www.w3.org/Graphics/SVG/1.1/DTD/svg11.dtd"><svg t="1540690763690" class="icon" style="" viewBox="0 0 1094 1024" version="1.1" xmlns="http://www.w3.org/2000/svg" p-id="14899" xmlns:xlink="http://www.w3.org/1999/xlink" width="34.1875" height="32"><defs><style type="text/css"></style></defs><path d="M1076.492336 15.489947a50.890996 50.890996 0 0 0-39.985783-14.994669h-298.075835A293.98638 293.98638 0 0 0 545.317563 78.649308 254.000597 254.000597 0 0 0 367.65346 0.495278H75.030232A75.88211 75.88211 0 0 0 15.505941 19.579402 58.161139 58.161139 0 0 0 0.056889 59.565185v776.99646a45.438389 45.438389 0 0 0 45.438389 47.710309h332.154628a172.211496 172.211496 0 0 1 133.134481 61.79621 45.438389 45.438389 0 0 0 35.441944 19.084123H556.67716a45.438389 45.438389 0 0 0 36.350712-19.084123 177.209719 177.209719 0 0 1 136.315168-61.79621h318.068727a45.438389 45.438389 0 0 0 45.438389-47.710309V57.293265a57.252371 57.252371 0 0 0-16.35782-41.803318z" fill="#E7E9E9" p-id="14900"></path><path d="M558.94908 144.080589a18.175356 18.175356 0 1 0-36.350712 0l9.087678 643.861979a18.62974 18.62974 0 0 0 18.175356 18.62974 18.62974 18.62974 0 0 0 17.720972-19.084124z" fill="#A1A3A4" p-id="14901"></path><path d="M397.642797 227.687226h-249.911142a22.719195 22.719195 0 0 1 0-45.43839h249.911142a22.719195 22.719195 0 0 1 0 45.43839z" fill="#38B1E7" p-id="14902"></path><path d="M386.2832 454.879173h-90.876779a22.719195 22.719195 0 0 1 0-45.438389h90.876779a22.719195 22.719195 0 0 1 0 45.438389zM386.2832 545.755952h-90.876779a22.719195 22.719195 0 1 1 0-45.438389h90.876779a22.719195 22.719195 0 0 1 0 45.438389z" fill="#9CA3A7" p-id="14903"></path><path d="M181.810447 466.238771m-56.797987 0a56.797987 56.797987 0 1 0 113.595974 0 56.797987 56.797987 0 1 0-113.595974 0Z" fill="#EC5044" p-id="14904"></path><path d="M397.642797 318.564005h-249.911142a22.719195 22.719195 0 0 1 0-45.43839h249.911142a22.719195 22.719195 0 0 1 0 45.43839zM386.2832 636.632731h-181.753558a22.719195 22.719195 0 1 1 0-45.438389h181.753558a22.719195 22.719195 0 0 1 0 45.438389z" fill="#9CA3A7" p-id="14905"></path><path d="M1045.139847 863.824679h-318.068726a288.533773 288.533773 0 0 0-171.757113 55.434835A288.533773 288.533773 0 0 0 384.920048 863.824679H45.495278a45.438389 45.438389 0 0 0 0 90.876779h339.42477a178.118487 178.118487 0 0 1 136.315168 54.980451 41.803318 41.803318 0 0 0 35.896328 14.085901h14.085901a33.624408 33.624408 0 0 0 19.538507-14.994669A178.118487 178.118487 0 0 1 727.071121 954.701458h318.068726a45.438389 45.438389 0 0 0 0-90.876779z" fill="#458EAF" p-id="14906"></path></svg>