<?xml version="1.0" standalone="no"?><!DOCTYPE svg PUBLIC "-//W3C//DTD SVG 1.1//EN" "http://www.w3.org/Graphics/SVG/1.1/DTD/svg11.dtd"><svg t="1540553796785" class="icon" style="" viewBox="0 0 1024 1024" version="1.1" xmlns="http://www.w3.org/2000/svg" p-id="1306" xmlns:xlink="http://www.w3.org/1999/xlink" width="32" height="32"><defs><style type="text/css"></style></defs><path d="M167.8 870.2V198.5c0-26.4 21.6-48 48-48h591.4c26.4 0 48 21.6 48 48v671.7c0 26.4-21.6 48-48 48H215.8c-26.4 0-48-21.6-48-48z" fill="#FFFFFF" p-id="1307"></path><path d="M167.8 382V198.6c0-26.4 21.6-48 48-48h591.4c26.4 0 48 21.6 48 48V382H167.8zM693.3 916.2l159.4-144.8-1.2-67.7L617 918.2z" fill="#B9D5EA" p-id="1308"></path><path d="M807.2 928.2H215.8c-32 0-58-26-58-58V182.3c0-32 26-58 58-58h591.4c32 0 58 26 58 58v687.9c0 32-26 58-58 58zM215.8 144.3c-21 0-38 17-38 38v687.9c0 21 17 38 38 38h591.4c21 0 38-17 38-38V182.3c0-21-17-38-38-38H215.8z" fill="#322E63" p-id="1309"></path><path d="M167.8 321.2V182.4c0-26.4 21.6-48 48-48h591.4c26.4 0 48 21.6 48 48v138.8H167.8z" fill="#EA4468" p-id="1310"></path><path d="M167.8 321.2V182.4c0-26.4 21.6-48 48-48h591.4c26.4 0 48 21.6 48 48v138.8H167.8z" fill="#FF525F" p-id="1311"></path><path d="M167.8 321.2V219.4c0-26.4 21.6-48 48-48h591.4c26.4 0 48 21.6 48 48v101.8H167.8z" fill="#EA4468" p-id="1312"></path><path d="M277.7 134.3h46v103.3h-46zM418.6 134.3h46v103.3h-46zM559.8 134.3h46v103.3h-46zM700.1 134.3h46v103.3h-46z" fill="#EA4468" p-id="1313"></path><path d="M865.2 331.2H157.8V182.4c0-32 26-58 58-58h591.4c32 0 58 26 58 58v148.8z m-687.4-20h667.4V182.4c0-21-17-38-38-38H215.8c-21 0-38 17-38 38v128.8z" fill="#322E63" p-id="1314"></path><path d="M300.9 223c-5.5 0-10-4.5-10-10V88.1c0-5.5 4.5-10 10-10s10 4.5 10 10V213c0 5.5-4.5 10-10 10zM441.6 223c-5.5 0-10-4.5-10-10V88.1c0-5.5 4.5-10 10-10s10 4.5 10 10V213c0 5.5-4.5 10-10 10zM582.4 223c-5.5 0-10-4.5-10-10V88.1c0-5.5 4.5-10 10-10s10 4.5 10 10V213c0 5.5-4.5 10-10 10zM723.1 223c-5.5 0-10-4.5-10-10V88.1c0-5.5 4.5-10 10-10s10 4.5 10 10V213c0 5.5-4.5 10-10 10z" fill="#322E63" p-id="1315"></path><path d="M471.5 468.8c6.1 0 11.1 1.9 15 5.8s5.8 8.9 5.8 15v62.2c0 7.5-2.3 16-6.9 25.7l-77.5 161.4h84.8v23H376.4V748l89.7-186.3v-69.9h-59.7v65.9h-26.2v-68.2c0-6.1 1.9-11.1 5.8-15s8.9-5.8 15-5.8l70.5 0.1m0-6h-70.6c-7.7 0-14.2 2.5-19.2 7.6-5 5-7.6 11.5-7.6 19.2v68.2c0 3.3 2.7 6 6 6h26.2c3.3 0 6-2.7 6-6v-59.9H460v62.5l-89 185c-0.4 0.8-0.6 1.7-0.6 2.6v13.9c0 3.3 2.7 6 6 6h116.3c3.3 0 6-2.7 6-6v-23c0-3.3-2.7-6-6-6h-75.3L490.8 580c5-10.4 7.5-19.9 7.5-28.3v-62.2c0-7.7-2.5-14.2-7.6-19.2-4.9-5-11.4-7.5-19.2-7.5zM613.5 468.8v1.1l-67.4 193.5h54.7V557h24.5v106.4h22.3v22.1h-22.3v76.4h-24.5v-76.4H518v-13.3l71-203.4h24.5m0-6H589c-2.6 0-4.8 1.6-5.7 4l-71 203.4c-0.2 0.6-0.3 1.3-0.3 2v13.3c0 3.3 2.7 6 6 6h76.8v70.4c0 3.3 2.7 6 6 6h24.5c3.3 0 6-2.7 6-6v-70.4h16.3c3.3 0 6-2.7 6-6v-22.1c0-3.3-2.7-6-6-6h-16.3V557c0-3.3-2.7-6-6-6h-24.5c-3.3 0-6 2.7-6 6v100.4h-40.2l64.6-185.5c0.2-0.6 0.3-1.3 0.3-2v-1.1c0-3.3-2.7-6-6-6z" fill="#322E63" p-id="1316"></path><path d="M492.7 761.9H376.4V748l89.7-186.3v-69.9h-59.7v65.9h-26.2v-68.2c0-6.1 1.9-11.1 5.8-15s8.9-5.8 15-5.8h70.6c6.1 0 11.1 1.9 15 5.8s5.8 8.9 5.8 15v62.2c0 7.5-2.3 16-6.9 25.7L408 738.8h84.8l-0.1 23.1zM647.6 685.5h-22.3v76.4h-24.5v-76.4H518v-13.3l71-203.4h24.5v1.1l-67.4 193.5h54.7V557h24.5v106.4h22.3v22.1z" fill="#322E63" p-id="1317"></path></svg>