<?xml version="1.0" standalone="no"?><!DOCTYPE svg PUBLIC "-//W3C//DTD SVG 1.1//EN" "http://www.w3.org/Graphics/SVG/1.1/DTD/svg11.dtd"><svg t="1540553818227" class="icon" style="" viewBox="0 0 1024 1024" version="1.1" xmlns="http://www.w3.org/2000/svg" p-id="1455" xmlns:xlink="http://www.w3.org/1999/xlink" width="32" height="32"><defs><style type="text/css"></style></defs><path d="M462.8 986h-190c-6.6 0-12-5.4-12-12V60c0-6.6 5.4-12 12-12h190c6.6 0 12 5.4 12 12v914c0 6.6-5.4 12-12 12z" fill="#FFB850" p-id="1456"></path><path d="M466.2 986h-58.3V48h58.3c6.6 0 12 5.4 12 12v914c0 6.6-5.4 12-12 12z" fill="#E8955D" p-id="1457"></path><path d="M462.8 996h-190c-12.1 0-22-9.9-22-22V60c0-12.1 9.9-22 22-22h190c12.1 0 22 9.9 22 22v914c0 12.1-9.9 22-22 22z m-190-938c-1.1 0-2 0.9-2 2v914c0 1.1 0.9 2 2 2h190c1.1 0 2-0.9 2-2V60c0-1.1-0.9-2-2-2h-190z" fill="#322E63" p-id="1458"></path><path d="M474.8 785.9h-66.9c-5.5 0-10-4.5-10-10s4.5-10 10-10h66.9c5.5 0 10 4.5 10 10s-4.5 10-10 10zM474.8 611.8h-66.9c-5.5 0-10-4.5-10-10s4.5-10 10-10h66.9c5.5 0 10 4.5 10 10s-4.5 10-10 10zM474.8 437.8h-66.9c-5.5 0-10-4.5-10-10s4.5-10 10-10h66.9c5.5 0 10 4.5 10 10s-4.5 10-10 10zM474.8 263.8h-66.9c-5.5 0-10-4.5-10-10s4.5-10 10-10h66.9c5.5 0 10 4.5 10 10s-4.5 10-10 10z" fill="#322E63" p-id="1459"></path><path d="M749.3 509.6H624.9c-6.6 0-12-5.4-12-12v-373c0-40.8 33.4-74.2 74.2-74.2 40.8 0 74.2 33.4 74.2 74.2v372.9c0 6.7-5.4 12.1-12 12.1z" fill="#4E98A0" p-id="1460"></path><path d="M749.3 509.6H624.9c-6.6 0-12-5.4-12-12v-373c0-40.8 33.4-74.2 74.2-74.2 40.8 0 74.2 33.4 74.2 74.2v372.9c0 6.7-5.4 12.1-12 12.1z" fill="#76C49A" p-id="1461"></path><path d="M708.9 509.6h-96V108.4c0-31.9 26.1-58 58-58 20.9 0 38 17.1 38 38v421.2z" fill="#76C49A" p-id="1462"></path><path d="M750.7 509.6H623.4c-5.8 0-10.5 4.7-10.5 10.5v392.1c0 40.6 33.2 73.8 73.8 73.8h0.8c40.6 0 73.8-33.2 73.8-73.8V520.1c0-5.8-4.8-10.5-10.6-10.5z" fill="#4E98A0" p-id="1463"></path><path d="M750.7 509.6H623.4c-5.8 0-10.5 4.7-10.5 10.5v355.1c0 40.6 33.2 73.8 73.8 73.8h0.8c40.6 0 73.8-33.2 73.8-73.8V520.1c0-5.8-4.8-10.5-10.6-10.5z" fill="#76C49A" p-id="1464"></path><path d="M612.9 480.3h148.4v66H612.9z" fill="#4E98A0" p-id="1465"></path><path d="M787.9 267h-14.6c-6.6 0-12-5.4-12-12v-79.2c0-6.6 5.4-12 12-12h14.6c6.6 0 12 5.4 12 12V255c0 6.6-5.4 12-12 12z" fill="#322E63" p-id="1466"></path><path d="M749.3 519.6H624.9c-12.1 0-22-9.9-22-22v-373c0-46.4 37.8-84.2 84.2-84.2 46.4 0 84.2 37.8 84.2 84.2v372.9c0 12.2-9.9 22.1-22 22.1zM687.1 60.4c-35.4 0-64.2 28.8-64.2 64.2v372.9c0 1.1 0.9 2 2 2h124.4c1.1 0 2-0.9 2-2V124.6c0-35.4-28.8-64.2-64.2-64.2z" fill="#322E63" p-id="1467"></path><path d="M687.5 996h-0.8c-46.2 0-83.8-37.6-83.8-83.8V520.1c0-11.3 9.2-20.5 20.5-20.5h127.4c11.3 0 20.5 9.2 20.5 20.5v392.1c0 46.2-37.6 83.8-83.8 83.8z m-64.1-476.4c-0.3 0-0.5 0.3-0.5 0.5v392.1c0 35.2 28.6 63.8 63.8 63.8h0.8c35.2 0 63.8-28.6 63.8-63.8V520.1c0-0.3-0.3-0.5-0.5-0.5H623.4zM799.9 519.6c-5.5 0-10-4.5-10-10V130.8c0-5.5 4.5-10 10-10s10 4.5 10 10v378.8c0 5.5-4.5 10-10 10z" fill="#322E63" p-id="1468"></path></svg>