<?xml version="1.0" standalone="no"?><!DOCTYPE svg PUBLIC "-//W3C//DTD SVG 1.1//EN" "http://www.w3.org/Graphics/SVG/1.1/DTD/svg11.dtd"><svg t="1543723072830" class="icon" style="" viewBox="0 0 1024 1024" version="1.1" xmlns="http://www.w3.org/2000/svg" p-id="2756" xmlns:xlink="http://www.w3.org/1999/xlink" width="128" height="128"><defs><style type="text/css"></style></defs><path d="M457.142858 823.259427C457.142858 853.556192 481.703235 878.116573 512 878.116573 542.296765 878.116573 566.857142 853.556192 566.857142 823.259427 566.857142 792.962666 542.296765 768.402285 512 768.402285 481.703235 768.402285 457.142858 792.962666 457.142858 823.259427L457.142858 823.259427Z" p-id="2757" fill="#bfbfbf"></path><path d="M512 1024C229.668572 1024 0 794.331427 0 512 0 229.668572 229.668572 0 512 0 794.331427 0 1024 229.668572 1024 512 1024 794.331427 794.331427 1024 512 1024L512 1024ZM512 73.472C270.189714 73.472 73.472 270.189714 73.472 512 73.472 753.773715 270.189714 950.528 512 950.528 753.773715 950.528 950.528 753.773715 950.528 512 950.528 270.189714 753.773715 73.472 512 73.472L512 73.472Z" p-id="2758" fill="#bfbfbf"></path><path d="M512 696.795427C491.812573 696.795427 475.428573 680.411427 475.428573 660.224L475.428573 598.381715C475.428573 538.550858 521.142858 492.836573 561.517715 452.498285 591.104 422.875427 621.714285 392.301715 621.714285 367.908573 621.714285 306.944 572.489142 257.353143 512 257.353143 450.486858 257.353143 402.285715 304.822857 402.285715 365.421715 402.285715 385.609142 385.901715 401.993142 365.714285 401.993142 345.526858 401.993142 329.142858 385.609142 329.142858 365.421715 329.142858 265.508572 411.172573 184.210286 512 184.210286 612.827427 184.210286 694.857142 266.605714 694.857142 367.908573 694.857142 422.656 653.348573 464.128 613.229715 504.246858 581.412573 535.990858 548.571427 568.832 548.571427 598.345142L548.571427 660.187427C548.571427 680.374858 532.187427 696.795427 512 696.795427L512 696.795427Z" p-id="2759" fill="#bfbfbf"></path></svg>