<?xml version="1.0" standalone="no"?><!DOCTYPE svg PUBLIC "-//W3C//DTD SVG 1.1//EN" "http://www.w3.org/Graphics/SVG/1.1/DTD/svg11.dtd"><svg t="1544413359255" class="icon" style="" viewBox="0 0 1024 1024" version="1.1" xmlns="http://www.w3.org/2000/svg" p-id="4602" xmlns:xlink="http://www.w3.org/1999/xlink" width="32" height="32"><defs><style type="text/css"></style></defs><path d="M157.469 437.856c-12.997 0-23.63 10.633-23.63 23.63v1.362c0 12.997 10.633 23.63 23.63 23.63H337.57c12.997 0 23.63-10.633 23.63-23.63v-1.362c0-12.997-10.633-23.63-23.63-23.63H157.469zM559.882 287.127c0-13.372-10.94-24.311-24.311-24.311H158.149c-13.371 0-24.311 10.94-24.311 24.311s10.94 24.311 24.311 24.311h377.422c13.372-0.001 24.311-10.941 24.311-24.311zM333.652 637.206c0-13.37-10.94-24.311-24.311-24.311H155.719c-13.371 0-24.311 10.94-24.311 24.311s10.94 24.311 24.311 24.311h153.622c13.37 0 24.311-10.94 24.311-24.311z" p-id="4603"></path><path d="M121.684 864.504c-40.215 0-72.932-32.715-72.932-72.932V205.687c0-40.215 32.718-72.932 72.932-72.932h70.5v9.725c0 15.376 12.581 27.957 27.957 27.957 15.377 0 27.957-12.581 27.957-27.957v-9.725h240.675v9.725c0 15.376 12.581 27.957 27.957 27.957 15.377 0 27.957-12.581 27.957-27.957v-9.725h89.95c40.217 0 72.932 32.718 72.932 72.932v70.449c0 13.425 10.883 24.311 24.311 24.311s24.311-10.885 24.311-24.311v-70.449c0-67.025-54.528-121.553-121.552-121.553h-89.95v-2.431c0-15.377-12.581-27.957-27.957-27.957-15.376 0-27.957 12.581-27.957 27.957v2.431H248.099v-2.431c0-15.377-12.581-27.957-27.957-27.957-15.376 0-27.957 12.581-27.957 27.957v2.431h-70.5C54.66 84.134 0.132 138.662 0.132 205.687v585.885c0 67.025 54.528 121.552 121.553 121.552 13.425 0 24.311-10.883 24.311-24.311 0-13.427-10.886-24.309-24.312-24.309z" p-id="4604"></path><path d="M874.365 618.984c20.589-24.874 32.192-56.348 32.192-89.626 0-77.614-63.142-140.756-140.756-140.756-3.156 0-6.079-0.024-8.802-0.048-20.158-0.181-33.971 0.318-49.303 9.264-30.693-46.157-83.151-76.653-142.618-76.653-94.387 0-171.175 76.787-171.175 171.174 0 45.286 18.238 88.457 49.365 120.14-109.557 50.063-180.615 158.775-180.615 282.25 0 18.658 1.751 37.653 5.208 56.455 2.033 11.046 11.664 19.07 22.897 19.07h565.073c11.233 0 20.865-8.024 22.897-19.07 2.286-12.44 3.753-24.958 4.533-37.412h113.495c11.233 0 20.868-8.024 22.897-19.07 2.798-15.229 4.215-30.608 4.215-45.714-0.002-100.762-59.781-190.28-149.503-230.004z m-38.616 304.712H310.838a262.017 262.017 0 0 1-1.627-28.966c0-117.228 75.328-218.803 187.447-252.755a23.276 23.276 0 0 0 16.364-19.493 23.275 23.275 0 0 0-11.26-22.825c-37.811-22.359-61.299-63.485-61.299-107.318 0-68.713 55.902-124.615 124.615-124.615s124.615 55.901 124.615 124.615c0 42.392-21.293 81.503-56.955 104.617a23.277 23.277 0 0 0-10.316 23.269 23.285 23.285 0 0 0 17.153 18.808c116.463 30.094 197.803 135.244 197.803 255.697a262.783 262.783 0 0 1-1.629 28.966z m140.723-56.482h-93.798c-10.222-115.773-84.286-215.896-190.898-259.757 28.354-31.111 44.474-71.866 44.474-115.117 0-18.286-2.912-35.899-8.247-52.433 6.644-4.975 11.532-4.949 28.596-4.795 2.848 0.024 5.902 0.051 9.201 0.051 51.941 0 94.197 42.256 94.197 94.197 0 32.042-16.099 61.607-43.061 79.089a23.285 23.285 0 0 0 6.84 42.077c90.398 23.36 153.532 104.973 153.532 198.466a201.204 201.204 0 0 1-0.836 18.222z" p-id="4605"></path></svg>