<?xml version="1.0" standalone="no"?><!DOCTYPE svg PUBLIC "-//W3C//DTD SVG 1.1//EN" "http://www.w3.org/Graphics/SVG/1.1/DTD/svg11.dtd"><svg t="1542371015178" class="icon" style="" viewBox="0 0 1024 1024" version="1.1" xmlns="http://www.w3.org/2000/svg" p-id="4968" xmlns:xlink="http://www.w3.org/1999/xlink" width="32" height="32"><defs><style type="text/css"></style></defs><path d="M897.7 484.1c45.1 0 81.7 36.6 81.7 81.7s-36.6 81.7-81.7 81.7V484.1z" fill="#D98C28" p-id="4969"></path><path d="M841.6 410.1v311.5c0 23.5-19 42.5-42.5 42.5H224.9c-23.5 0-42.5-19-42.5-42.5V410.1c0-23.5 19-42.5 42.5-42.5h574.2c23.5 0 42.5 19 42.5 42.5z m-61.1 155.7c0-60.7-49.2-109.9-109.9-109.9s-109.9 49.2-109.9 109.9S610 675.7 670.6 675.7c60.7 0 109.9-49.2 109.9-109.9z m-317.3 0c0-60.7-49.2-109.9-109.9-109.9s-109.9 49.2-109.9 109.9 49.2 109.9 109.9 109.9c60.8 0 109.9-49.2 109.9-109.9z" fill="#68C1EB" p-id="4970"></path><path d="M463.9 191.8a48.1 48.1 0 1 0 96.2 0 48.1 48.1 0 1 0-96.2 0Z" fill="#F3D925" p-id="4971"></path><path d="M126.3 484.1v163.4c-45.1 0-81.7-36.6-81.7-81.7s36.5-81.7 81.7-81.7z" fill="#D98C28" p-id="4972"></path><path d="M799.1 349.1H530.5v-93.4c27.8-8 48.1-33.6 48.1-63.9 0-36.7-29.9-66.6-66.6-66.6-36.7 0-66.6 29.9-66.6 66.6 0 30.3 20.4 55.9 48.1 63.9v93.4H224.9c-33.6 0-61 27.4-61 61v311.5c0 33.6 27.4 61 61 61h574.2c33.6 0 61-27.4 61-61V410.1c0-33.6-27.4-61-61-61zM482.3 191.8c0-16.3 13.3-29.6 29.7-29.6 16.3 0 29.6 13.3 29.6 29.6s-13.3 29.6-29.6 29.6c-16.4 0-29.7-13.3-29.7-29.6z m340.9 529.7c0 13.3-10.8 24.1-24.1 24.1H224.9c-13.3 0-24.1-10.8-24.1-24.1V410.1c0-13.3 10.8-24.1 24.1-24.1h574.2c13.3 0 24.1 10.8 24.1 24.1v311.4z" fill="#6A3906" p-id="4973"></path><path d="M353.4 437.5C282.6 437.5 225 495 225 565.8s57.6 128.3 128.3 128.3c70.8 0 128.3-57.6 128.3-128.3s-57.5-128.3-128.2-128.3z m0 219.7c-50.4 0-91.4-41-91.4-91.4s41-91.4 91.4-91.4c50.4 0 91.4 41 91.4 91.4s-41 91.4-91.4 91.4zM670.6 437.5c-70.8 0-128.3 57.6-128.3 128.3s57.6 128.3 128.3 128.3c70.8 0 128.3-57.6 128.3-128.3s-57.5-128.3-128.3-128.3z m0 219.7c-50.4 0-91.4-41-91.4-91.4s41-91.4 91.4-91.4c50.4 0 91.4 41 91.4 91.4s-41 91.4-91.4 91.4zM897.7 465.6c-10.2 0-18.5 8.3-18.5 18.5v163.4c0 10.2 8.3 18.5 18.5 18.5 55.2 0 100.2-44.9 100.2-100.2S953 465.6 897.7 465.6z m18.5 160.7v-121c25.9 7.9 44.8 32 44.8 60.5s-18.9 52.6-44.8 60.5zM126.3 465.6c-55.2 0-100.2 44.9-100.2 100.2S71 666 126.3 666c10.2 0 18.5-8.3 18.5-18.5V484.1c-0.1-10.2-8.3-18.5-18.5-18.5z m-18.5 160.7c-25.9-7.9-44.8-32-44.8-60.5s18.9-52.6 44.8-60.5v121z" fill="#6A3906" p-id="4974"></path><path d="M393.4 565.8c0 22.1-17.9 40-40 40s-40-17.9-40-40 17.9-40 40-40c10.2 0 18.5-8.3 18.5-18.5s-8.3-18.5-18.5-18.5c-42.4 0-76.9 34.5-76.9 76.9s34.5 76.9 76.9 76.9c42.4 0 76.9-34.5 76.9-76.9 0-10.2-8.3-18.5-18.5-18.5-10.2 0.2-18.4 8.4-18.4 18.6zM670.6 488.9c-42.4 0-76.9 34.5-76.9 76.9s34.5 76.9 76.9 76.9c10.2 0 18.5-8.3 18.5-18.5s-8.3-18.5-18.5-18.5c-22.1 0-40-17.9-40-40s17.9-40 40-40 40 17.9 40 40c0 10.2 8.3 18.5 18.5 18.5s18.5-8.3 18.5-18.5c0-42.3-34.6-76.8-77-76.8z" fill="#6A3906" p-id="4975"></path></svg>