<?xml version="1.0" standalone="no"?><!DOCTYPE svg PUBLIC "-//W3C//DTD SVG 1.1//EN" "http://www.w3.org/Graphics/SVG/1.1/DTD/svg11.dtd"><svg t="1544413199167" class="icon" style="" viewBox="0 0 1024 1024" version="1.1" xmlns="http://www.w3.org/2000/svg" p-id="1133" xmlns:xlink="http://www.w3.org/1999/xlink" width="32" height="32"><defs><style type="text/css"></style></defs><path d="M839.348456 173.344259 732.210653 173.344259 732.210653 123.919656c0-13.712002-11.051464-24.763466-24.763466-24.763466-13.609673 0-24.763466 11.051464-24.763466 24.763466l0 49.424603L534.512241 173.344259 534.512241 123.919656c0-13.712002-11.051464-24.763466-24.763466-24.763466-13.609673 0-24.763466 11.051464-24.763466 24.763466l0 49.424603L336.81383 173.344259 336.81383 123.919656c0-13.712002-11.051464-24.763466-24.763466-24.763466-13.609673 0-24.763466 11.051464-24.763466 24.763466l0 49.424603L180.251424 173.344259c-36.4289 0-65.89947 29.470571-65.89947 65.89947l0 584.908964c0 36.4289 29.470571 65.89947 65.89947 65.89947l659.097032 0c36.4289 0 65.89947-29.470571 65.89947-65.89947L905.247926 239.243729C905.247926 202.81483 875.777356 173.344259 839.348456 173.344259zM855.823324 824.152693c0 9.107225-7.367643 16.474868-16.474868 16.474868L180.251424 840.627561c-9.107225 0-16.474868-7.367643-16.474868-16.474868L163.776556 239.243729c0-9.107225 7.367643-16.474868 16.474868-16.474868l107.137804 0 0 49.424603c0 13.609673 11.051464 24.763466 24.763466 24.763466 13.609673 0 24.763466-11.051464 24.763466-24.763466l0-49.424603L485.087639 222.768862l0 49.424603c0 13.609673 11.051464 24.763466 24.763466 24.763466 13.609673 0 24.763466-11.051464 24.763466-24.763466l0-49.424603 148.273808 0 0 49.424603c0 13.609673 11.051464 24.763466 24.763466 24.763466 13.609673 0 24.763466-11.051464 24.763466-24.763466l0-49.424603 107.137804 0c9.107225 0 16.474868 7.367643 16.474868 16.474868L856.02798 824.152693zM287.389228 469.891876l98.849206 0 0-74.188068-98.849206 0L287.389228 469.891876zM287.389228 593.504547l98.849206 0 0-74.188068-98.849206 0L287.389228 593.504547zM287.389228 717.01489l98.849206 0 0-74.188068-98.849206 0L287.389228 717.01489zM460.426501 717.01489l98.849206 0 0-74.188068-98.849206 0L460.426501 717.01489zM460.426501 593.504547l98.849206 0 0-74.188068-98.849206 0L460.426501 593.504547zM460.426501 469.891876l98.849206 0 0-74.188068-98.849206 0L460.426501 469.891876zM633.361447 717.01489l98.849206 0 0-74.188068-98.849206 0L633.361447 717.01489zM633.361447 593.504547l98.849206 0 0-74.188068-98.849206 0L633.361447 593.504547zM633.361447 469.891876l98.849206 0 0-74.188068-98.849206 0L633.361447 469.891876z" p-id="1134"></path></svg>