<?xml version="1.0" standalone="no"?><!DOCTYPE svg PUBLIC "-//W3C//DTD SVG 1.1//EN" "http://www.w3.org/Graphics/SVG/1.1/DTD/svg11.dtd"><svg t="1544413240431" class="icon" style="" viewBox="0 0 1024 1024" version="1.1" xmlns="http://www.w3.org/2000/svg" p-id="1860" xmlns:xlink="http://www.w3.org/1999/xlink" width="32" height="32"><defs><style type="text/css"></style></defs><path d="M869.689519 210.517621l-93.77271 0 0-24.136723c0-11.456936-9.286504-20.745487-20.745487-20.745487L651.429563 165.635411c-5.167696-25.016767-19.148106-47.939849-40.704051-66.042135-26.767644-22.478967-62.153572-34.858926-99.642394-34.858926-37.488823 0-72.875774 12.379958-99.642394 34.858926-21.555945 18.102287-35.536354 41.025369-40.704051 66.042135L266.288832 165.635411c-11.456936 0-20.745487 9.286504-20.745487 20.745487l0 24.136723-93.066629 0c-17.184381 0-31.116695 13.932314-31.116695 31.117718l0 687.651532c0 17.184381 13.932314 31.116695 31.116695 31.116695l717.211778 0c17.184381 0 31.116695-13.931291 31.116695-31.116695L900.80519 241.633293C900.807237 224.448912 886.873899 210.517621 869.689519 210.517621zM511.083118 102.345969c48.577369 0 89.554642 26.894534 101.490485 63.288418L409.592632 165.634388C421.528476 129.238456 462.505749 102.345969 511.083118 102.345969zM287.033295 207.124338l447.393563 0 0 59.467393L287.033295 266.591731 287.033295 207.124338zM838.572824 898.16813 183.594435 898.16813 183.594435 272.751011l61.949934 0 0 14.585183c0 11.456936 9.286504 20.745487 20.745487 20.745487l488.884536 0c11.456936 0 20.745487-9.287527 20.74344-20.745487l0-14.585183 62.654992 0L838.572824 898.16813z" p-id="1861"></path><path d="M719.215412 431.857728 407.353638 431.857728c-11.45796 0-20.745487 9.286504-20.745487 20.745487 0 11.45796 9.287527 20.744463 20.745487 20.744463l311.861774 0c11.456936 0 20.745487-9.286504 20.745487-20.744463C739.959875 441.144232 730.672348 431.857728 719.215412 431.857728z" p-id="1862"></path><path d="M719.215412 575.687508 407.353638 575.687508c-11.45796 0-20.745487 9.287527-20.745487 20.745487 0 11.45796 9.287527 20.745487 20.745487 20.745487l311.861774 0c11.456936 0 20.745487-9.286504 20.745487-20.745487C739.959875 584.975035 730.672348 575.687508 719.215412 575.687508z" p-id="1863"></path><path d="M719.215412 719.517287 407.353638 719.517287c-11.45796 0-20.745487 9.287527-20.745487 20.745487 0 11.45796 9.287527 20.744463 20.745487 20.744463l311.861774 0c11.456936 0 20.745487-9.286504 20.745487-20.744463C739.959875 728.803791 730.672348 719.517287 719.215412 719.517287z" p-id="1864"></path><path d="M308.469514 452.602192m-31.116695 0a30.408 30.408 0 1 0 62.23339 0 30.408 30.408 0 1 0-62.23339 0Z" p-id="1865"></path><path d="M308.469514 596.432994m-31.116695 0a30.408 30.408 0 1 0 62.23339 0 30.408 30.408 0 1 0-62.23339 0Z" p-id="1866"></path><path d="M308.469514 740.261751m-31.116695 0a30.408 30.408 0 1 0 62.23339 0 30.408 30.408 0 1 0-62.23339 0Z" p-id="1867"></path></svg>