<?xml version="1.0" standalone="no"?><!DOCTYPE svg PUBLIC "-//W3C//DTD SVG 1.1//EN" "http://www.w3.org/Graphics/SVG/1.1/DTD/svg11.dtd"><svg t="1544417608632" class="icon" style="" viewBox="0 0 1024 1024" version="1.1" xmlns="http://www.w3.org/2000/svg" p-id="4875" xmlns:xlink="http://www.w3.org/1999/xlink" width="32" height="32"><defs><style type="text/css"></style></defs><path d="M646.086369 939.66729h-0.006139c-16.269545-0.011256-32.089859-6.820336-42.303479-18.23327-13.915941-15.4509-58.016345-55.629995-94.113471-55.629995-35.848463 0-80.633459 40.410362-93.495394 54.56678-10.188037 11.220552-25.897833 17.916045-42.009789 17.916045-7.68196 0-14.921851-1.487887-21.537526-4.429893l-1.157359-0.509607-109.721961-62.131059-1.094937-0.771573c-19.967774-14.157441-27.571962-41.8522-17.673522-64.414055 0.075725-0.172939 10.120498-23.64349 10.120499-45.040822 0-64.939011-52.178383-117.771287-116.310006-117.771287h-3.88754c-0.23536 0.010233-0.470721 0.011256-0.704035 0.015349-18.375509 0-33.330106-16.524348-38.116109-42.10291-0.379647-2.049682-9.358135-50.55235-9.358135-88.769766s8.976442-86.726224 9.358135-88.775906c4.838192-25.89988 20.122293-42.536792 38.82219-42.08756h3.887541c64.132646 0 116.308983-52.833299 116.308982-117.767194 0-21.395286-10.036587-44.86072-10.145058-45.096081-9.889231-22.539342-2.234901-50.230008 17.829064-64.342424l1.13587-0.799202 115.793236-64.402799 1.207502-0.518816c6.522554-2.814092 13.661138-4.239558 21.228487-4.239558 16.08228 0 31.815613 6.551206 42.104957 17.527189 13.706163 14.528901 57.024761 52.318576 92.087324 52.318576 34.736129 0 77.793784-37.042661 91.452875-51.318806 10.231015-10.749832 25.854854-17.189498 41.772383-17.189498 7.718799 0 14.993482 1.475608 21.62553 4.393054l1.170662 0.515746 111.839181 62.914912 1.104147 0.787946c20.014846 14.133905 27.634384 41.830711 17.727757 64.408938-0.071631 0.172939-10.122545 23.64349-10.122545 45.040823 0 64.933895 52.18043 117.767194 116.308982 117.767194h3.895727c18.667152-0.421602 33.971719 16.187681 38.814004 42.08756 0.38067 2.049682 9.356089 50.55235 9.356089 88.769766 0 38.22151-8.976442 86.726224-9.363252 88.775906-4.836145 25.901926-20.139689 42.472324-38.816051 42.087561H907.215692c-64.128553 0-116.308983 52.831252-116.308983 117.771287 0 21.388123 10.04068 44.850487 10.141988 45.081754 9.878998 22.531156 2.242064 50.227961-17.779945 64.353681l-1.120521 0.795109-113.732297 63.649645-1.183965 0.517793c-6.511297 2.832512-13.617136 4.279467-21.1456 4.279467z m-3.451611-54.256718c0.505513 0.334621 1.946328 0.908696 3.453658 0.908696 0.062422 0 0.118704 0 0.170892-0.004094l106.258069-59.4633c-2.567475-6.034437-14.293541-35.31532-14.293541-65.853847 0-91.346451 71.051219-166.205393 160.132071-170.887018 1.279133-7.16826 8.241708-47.498804 8.241708-77.746712 0-30.252001-6.960529-70.557986-8.241708-77.750805-89.078805-4.684696-160.13207-79.541591-160.132071-170.882925 0-30.584576 11.763928-59.904345 14.301728-65.892733l-104.531752-58.804291c-0.118704-0.008186-0.26606-0.019443-0.437975-0.019443-1.781576 0-3.444449 0.661056-3.996011 1.03661-1.755993 1.827625-16.905018 17.388019-38.672787 32.887014-32.219819 22.953781-62.683644 34.591843-90.554413 34.591843-28.135804 0-58.848293-11.872399-91.274819-35.271318-21.900799-15.802918-37.122479-31.662117-38.882566-33.520441-0.554632-0.38067-2.242064-1.062192-4.036943-1.062192-0.140193 0-0.26299 0.00614-0.373507 0.011256l-108.275005 60.217477c2.600221 6.106068 14.282285 35.338856 14.282285 65.826218 0 91.338265-71.049173 166.196183-160.134118 170.882925-1.279133 7.172353-8.237615 47.497781-8.237614 77.748758 0 30.247908 6.958482 70.553892 8.243754 77.745689 89.076758 4.686742 160.129001 79.538521 160.129001 170.882925 0 30.648021-11.80793 60.016909-14.32424 65.927525l102.480022 58.023508c0.064468 0.010233 0.144286 0.010233 0.229221 0.010233 1.494027 0 2.913353-0.554632 3.422959-0.887206 1.913583-2.082428 17.21815-18.486026 39.267329-34.850739 32.857339-24.38641 64.087621-36.748972 92.816942-36.748972 28.999474 0 60.46307 12.597923 93.514837 37.45096 22.174022 16.667611 37.545104 33.376155 39.454594 35.494399zM510.038834 668.605757c-85.409229 0-154.891719-70.359464-154.89172-156.838048s69.484537-156.838048 154.89172-156.838047 154.896836 70.359464 154.896836 156.838047c-0.001023 86.478584-69.489654 156.838048-154.896836 156.838048z m0-260.329097c-56.355519 0-102.20373 46.422286-102.20373 103.48491 0 57.07081 45.848211 103.495142 102.20373 103.495142 56.359612 0 102.214986-46.424332 102.214986-103.495142-0.001023-57.063647-45.853327-103.484909-102.214986-103.48491z" p-id="4876"></path></svg>